<svg preserveAspectRatio="none" overflow="visible" style="display: block;" width="24" height="20" viewBox="0 0 24 20" fill="none" xmlns="http://www.w3.org/2000/svg">
<path id="Vector" d="M22.2857 0H1.71429C1.25963 0 0.823594 0.210714 0.502103 0.585786C0.180612 0.960859 0 1.46957 0 2V18C0 18.5304 0.180612 19.0391 0.502103 19.4142C0.823594 19.7893 1.25963 20 1.71429 20H22.2857C22.7404 20 23.1764 19.7893 23.4979 19.4142C23.8194 19.0391 24 18.5304 24 18V2C24 1.46957 23.8194 0.960859 23.4979 0.585786C23.1764 0.210714 22.7404 0 22.2857 0ZM20.4 2L12 8.78L3.6 2H20.4ZM1.71429 18V2.91L11.5114 10.82C11.6549 10.9361 11.8254 10.9984 12 10.9984C12.1746 10.9984 12.3451 10.9361 12.4886 10.82L22.2857 2.91V18H1.71429Z" fill="#971F2A"/>
</svg>
